#tb 0: 1/25
0,          0,          0,        1,  3339072, 0x28be238d
0,          4,          4,        1,  3339072, 0x43b62aae
0,          6,          6,        1,  3339072, 0x36259da6
0,          7,          7,        1,  3339072, 0xd0dbbc1e
0,          8,          8,        1,  3339072, 0x20df7c7c
0,          9,          9,        1,  3339072, 0xb8872e77
0,         10,         10,        1,  3339072, 0xceb4cce4
0,         11,         11,        1,  3339072, 0x4ffa1dab
0,         12,         12,        1,  3339072, 0x1c687703
0,         13,         13,        1,  3339072, 0x5a0fa46f
